# xmcd
#
# Track frame offsets: 
#        150
#        15920
#        43252
#        60808
#        77394
#        100823
#        119548
#        146097
#        168307
#        193027
#        216141
#        233280
#        254315
#        279341
#
# Disc length: 3988 seconds
#
# Revision: 0
# Processed by: cddbd v1.5.2PL0 Copyright (c) Steve Scherf et al.
# Submitted via: ExactAudioCopyFreeDBPlugin 1.0
#
DISCID=ae0f920e
DTITLE=Thu Phuong - Nuoc Mat thieu nu
DYEAR=1900
DGENRE=
TTITLE0=Nuoc mat thieu nu
TTITLE1=Reu phong
TTITLE2=Nua dem
TTITLE3=Coco jamboo
TTITLE4=Bien chieu
TTITLE5=Rieng co doi ta
TTITLE6=Mua ben kia song
TTITLE7=Ve day nghe em
TTITLE8=Giua long phuong nam
TTITLE9=Tinh hong
TTITLE10=Phai nhat
TTITLE11=Hat voi chu ve con
TTITLE12=Chieu xuan
TTITLE13=Vuon yeu
EXTD=
EXTT0=
EXTT1=
EXTT2=
EXTT3=
EXTT4=
EXTT5=
EXTT6=
EXTT7=
EXTT8=
EXTT9=
EXTT10=
EXTT11=
EXTT12=
EXTT13=
PLAYORDER=
